<mxfile host="app.diagrams.net" agent="Mozilla/5.0 (Windows NT 10.0; Win64; x64) AppleWebKit/537.36 (KHTML, like Gecko) Chrome/129.0.0.0 Safari/537.36 Edg/129.0.0.0" version="24.7.17">
  <diagram name="Page-1" id="c7558073-3199-34d8-9f00-42111426c3f3">
    <mxGraphModel dx="1195" dy="439" grid="0" gridSize="24" guides="1" tooltips="1" connect="1" arrows="1" fold="1" page="0" pageScale="1" pageWidth="826" pageHeight="1169" background="#000099" math="0" shadow="0">
      <root>
        <mxCell id="0" />
        <mxCell id="1" parent="0" />
        <mxCell id="-sDVmUkW7w9gJZ2iMdyc-38" value="" style="edgeStyle=orthogonalEdgeStyle;rounded=0;orthogonalLoop=1;jettySize=auto;html=1;strokeColor=#FFFFFF;strokeWidth=2;" parent="1" source="2" target="-sDVmUkW7w9gJZ2iMdyc-37" edge="1">
          <mxGeometry relative="1" as="geometry" />
        </mxCell>
        <mxCell id="sXCSSm3qtaqTTpKXIJX--42" style="edgeStyle=orthogonalEdgeStyle;rounded=0;orthogonalLoop=1;jettySize=auto;html=1;strokeColor=#FFFFFF;strokeWidth=2;" parent="1" source="2" target="sXCSSm3qtaqTTpKXIJX--38" edge="1">
          <mxGeometry relative="1" as="geometry" />
        </mxCell>
        <mxCell id="2" value="&lt;p style=&quot;margin: 4px 0px 0px;&quot;&gt;&lt;span style=&quot;color: rgb(255, 255, 255);&quot;&gt;1，初始化nvs参数库&lt;/span&gt;&lt;br&gt;&lt;/p&gt;&lt;p style=&quot;margin: 4px 0px 0px;&quot;&gt;&lt;span style=&quot;color: rgb(255, 255, 255);&quot;&gt;2，创建不同的功能任务&lt;/span&gt;&lt;/p&gt;&lt;p style=&quot;margin: 4px 0px 0px;&quot;&gt;&lt;span style=&quot;color: rgb(255, 255, 255);&quot;&gt;&lt;br&gt;&lt;/span&gt;&lt;/p&gt;" style="verticalAlign=middle;align=center;overflow=fill;fontSize=12;fontFamily=Helvetica;html=1;rounded=1;fontStyle=1;strokeWidth=3;fillColor=#0000FF;arcSize=25;" parent="1" vertex="1">
          <mxGeometry x="-5" y="253" width="200" height="40" as="geometry" />
        </mxCell>
        <mxCell id="4" value="percussion&#xa;app start" style="whiteSpace=wrap;align=center;verticalAlign=middle;fontStyle=1;strokeWidth=3;fillColor=#0066CC;" parent="1" vertex="1">
          <mxGeometry x="50" y="148" width="90" height="60" as="geometry" />
        </mxCell>
        <mxCell id="37" value="" style="edgeStyle=none;noEdgeStyle=1;strokeColor=#FFFFFF;strokeWidth=2" parent="1" source="4" target="2" edge="1">
          <mxGeometry width="100" height="100" relative="1" as="geometry">
            <mxPoint x="280" y="190" as="sourcePoint" />
            <mxPoint x="380" y="90" as="targetPoint" />
          </mxGeometry>
        </mxCell>
        <mxCell id="PsqxnXAQ3Fkz8UXOKLwo-47" value="" style="edgeStyle=orthogonalEdgeStyle;rounded=0;orthogonalLoop=1;jettySize=auto;html=1;strokeColor=#FFFFFF;strokeWidth=2;" parent="1" source="-sDVmUkW7w9gJZ2iMdyc-37" target="PsqxnXAQ3Fkz8UXOKLwo-46" edge="1">
          <mxGeometry relative="1" as="geometry" />
        </mxCell>
        <mxCell id="-sDVmUkW7w9gJZ2iMdyc-37" value="初始化led引脚" style="whiteSpace=wrap;html=1;fillColor=#0000FF;rounded=1;fontStyle=1;strokeWidth=3;fontColor=#FFFFFF;" parent="1" vertex="1">
          <mxGeometry x="-237" y="392.5" width="105" height="74" as="geometry" />
        </mxCell>
        <mxCell id="-sDVmUkW7w9gJZ2iMdyc-39" value="led任务" style="text;strokeColor=none;align=center;fillColor=none;html=1;verticalAlign=middle;whiteSpace=wrap;rounded=0;fontFamily=Helvetica;fontSize=12;fontColor=#FFFFFF;fontStyle=1;" parent="1" vertex="1">
          <mxGeometry x="-263" y="356" width="60" height="30" as="geometry" />
        </mxCell>
        <mxCell id="PsqxnXAQ3Fkz8UXOKLwo-46" value="根据不同状态控制led显示不同效果，常亮，闪烁等" style="whiteSpace=wrap;html=1;fillColor=#0000FF;fontColor=#FFFFFF;rounded=1;fontStyle=1;strokeWidth=3;" parent="1" vertex="1">
          <mxGeometry x="-244.5" y="509" width="120" height="60" as="geometry" />
        </mxCell>
        <mxCell id="PsqxnXAQ3Fkz8UXOKLwo-68" style="edgeStyle=orthogonalEdgeStyle;shape=connector;rounded=0;orthogonalLoop=1;jettySize=auto;html=1;strokeColor=#FFFFFF;strokeWidth=2;align=center;verticalAlign=middle;fontFamily=Helvetica;fontSize=11;fontColor=default;labelBackgroundColor=default;endArrow=classic;elbow=vertical;" parent="1" source="PsqxnXAQ3Fkz8UXOKLwo-46" target="PsqxnXAQ3Fkz8UXOKLwo-46" edge="1">
          <mxGeometry relative="1" as="geometry" />
        </mxCell>
        <mxCell id="sXCSSm3qtaqTTpKXIJX--37" value="" style="edgeStyle=orthogonalEdgeStyle;rounded=0;orthogonalLoop=1;jettySize=auto;html=1;strokeColor=#FFFFFF;strokeWidth=2;" parent="1" source="sXCSSm3qtaqTTpKXIJX--38" target="sXCSSm3qtaqTTpKXIJX--40" edge="1">
          <mxGeometry relative="1" as="geometry" />
        </mxCell>
        <mxCell id="sXCSSm3qtaqTTpKXIJX--38" value="初始化按键引脚" style="whiteSpace=wrap;html=1;fillColor=#0000FF;rounded=1;fontStyle=1;strokeWidth=3;fontColor=#FFFFFF;" parent="1" vertex="1">
          <mxGeometry x="42" y="386.5" width="105" height="74" as="geometry" />
        </mxCell>
        <mxCell id="sXCSSm3qtaqTTpKXIJX--39" value="按键任务" style="text;strokeColor=none;align=center;fillColor=none;html=1;verticalAlign=middle;whiteSpace=wrap;rounded=0;fontFamily=Helvetica;fontSize=12;fontColor=#FFFFFF;fontStyle=1;" parent="1" vertex="1">
          <mxGeometry x="16" y="350" width="60" height="30" as="geometry" />
        </mxCell>
        <mxCell id="sXCSSm3qtaqTTpKXIJX--40" value="循环读取按键引脚状态来得到按键输入事件，单击，连击，长按等。" style="whiteSpace=wrap;html=1;fillColor=#0000FF;fontColor=#FFFFFF;rounded=1;fontStyle=1;strokeWidth=3;" parent="1" vertex="1">
          <mxGeometry x="34.5" y="503" width="120" height="77" as="geometry" />
        </mxCell>
        <mxCell id="sXCSSm3qtaqTTpKXIJX--41" style="edgeStyle=orthogonalEdgeStyle;shape=connector;rounded=0;orthogonalLoop=1;jettySize=auto;html=1;strokeColor=#FFFFFF;strokeWidth=2;align=center;verticalAlign=middle;fontFamily=Helvetica;fontSize=11;fontColor=default;labelBackgroundColor=default;endArrow=classic;elbow=vertical;" parent="1" source="sXCSSm3qtaqTTpKXIJX--40" target="sXCSSm3qtaqTTpKXIJX--40" edge="1">
          <mxGeometry relative="1" as="geometry" />
        </mxCell>
        <mxCell id="1mK7h94CjfLpnch9oPWr-37" style="edgeStyle=orthogonalEdgeStyle;shape=connector;rounded=0;orthogonalLoop=1;jettySize=auto;html=1;strokeColor=#FFFFFF;strokeWidth=2;align=center;verticalAlign=middle;fontFamily=Helvetica;fontSize=11;fontColor=default;labelBackgroundColor=default;endArrow=classic;" parent="1" source="2" target="1mK7h94CjfLpnch9oPWr-38" edge="1">
          <mxGeometry relative="1" as="geometry">
            <mxPoint x="1479.5517241379312" y="408.8620689655172" as="targetPoint" />
            <mxPoint x="823" y="273" as="sourcePoint" />
          </mxGeometry>
        </mxCell>
        <mxCell id="1mK7h94CjfLpnch9oPWr-41" value="" style="edgeStyle=orthogonalEdgeStyle;rounded=0;orthogonalLoop=1;jettySize=auto;html=1;strokeColor=#FFFFFF;strokeWidth=2;" parent="1" source="1mK7h94CjfLpnch9oPWr-38" target="1mK7h94CjfLpnch9oPWr-40" edge="1">
          <mxGeometry relative="1" as="geometry" />
        </mxCell>
        <mxCell id="1mK7h94CjfLpnch9oPWr-38" value="初始化继电器开关控制gpio" style="whiteSpace=wrap;html=1;fillColor=#0000FF;rounded=1;fontStyle=1;strokeWidth=3;fontColor=#FFFFFF;" parent="1" vertex="1">
          <mxGeometry x="339" y="392" width="158" height="67.5" as="geometry" />
        </mxCell>
        <mxCell id="1mK7h94CjfLpnch9oPWr-39" value="叩击继电器控制任务" style="text;strokeColor=none;align=center;fillColor=none;html=1;verticalAlign=middle;whiteSpace=wrap;rounded=0;fontFamily=Helvetica;fontSize=12;fontColor=#FFFFFF;fontStyle=1;" parent="1" vertex="1">
          <mxGeometry x="303" y="350" width="96" height="30" as="geometry" />
        </mxCell>
        <mxCell id="1mK7h94CjfLpnch9oPWr-40" value="进入状态机&lt;div&gt;循环等待控制继电器开关&lt;/div&gt;" style="whiteSpace=wrap;html=1;fillColor=#0000FF;fontColor=#FFFFFF;rounded=1;fontStyle=1;strokeWidth=3;" parent="1" vertex="1">
          <mxGeometry x="358" y="511.5" width="120" height="60" as="geometry" />
        </mxCell>
        <mxCell id="46jNm4-g0Nsb7Lgoay_Q-44" style="edgeStyle=orthogonalEdgeStyle;rounded=0;orthogonalLoop=1;jettySize=auto;html=1;strokeWidth=2;strokeColor=#FFFFFF;" parent="1" source="1mK7h94CjfLpnch9oPWr-40" target="1mK7h94CjfLpnch9oPWr-40" edge="1">
          <mxGeometry relative="1" as="geometry" />
        </mxCell>
      </root>
    </mxGraphModel>
  </diagram>
</mxfile>
